<svg width="36" height="36" viewBox="0 0 36 36" fill="none" xmlns="http://www.w3.org/2000/svg">
<path fill-rule="evenodd" clip-rule="evenodd" d="M15.2031 4.9582C14.4918 5.19269 14.0112 5.85711 14.0112 6.60605V10.8157C14.0112 11.9955 15.1634 12.8313 16.2849 12.4651L20.6468 11.0407C21.3605 10.8077 21.8433 10.1421 21.8433 9.39134V5.16804C21.8433 3.98614 20.6874 3.15014 19.5649 3.52019L15.2031 4.9582ZM6.80572 15.6962C5.68417 16.0625 4.53204 15.2267 4.53204 14.0469V9.83724C4.53204 9.0883 5.01259 8.42388 5.72387 8.18939L10.0858 6.75138C11.2082 6.38133 12.3641 7.21733 12.3641 8.39922V11.4496C12.3641 11.9384 12.5703 12.4046 12.932 12.7334L14.3378 14.0114C14.8006 14.4321 15.4541 14.5712 16.0482 14.3754L19.5649 13.216C20.6874 12.8459 21.8433 13.6819 21.8433 14.8638V19.0871C21.8433 19.8379 21.3605 20.5035 20.6468 20.7365L16.2849 22.1608C15.1634 22.5271 14.0112 21.6913 14.0112 20.5115V17.3938C14.0112 16.905 13.805 16.4388 13.4433 16.1099L12.1009 14.8896C11.6394 14.4701 10.9882 14.3305 10.3952 14.5241L6.80572 15.6962ZM25.9807 19.2479C24.8591 19.6141 23.707 18.7784 23.707 17.5985V13.3889C23.707 12.64 24.1875 11.9755 24.8988 11.741L29.2607 10.303C30.3832 9.93298 31.5391 10.769 31.5391 11.9509V16.1742C31.5391 16.9249 31.0562 17.5905 30.3426 17.8236L25.9807 19.2479ZM25.9844 28.959C24.8621 29.3283 23.707 28.4923 23.707 27.3108V23.0439C23.707 22.2964 24.1857 21.633 24.8951 21.3973L29.257 19.9483C30.3802 19.5752 31.5391 20.4114 31.5391 21.5949V25.8756C31.5391 26.6249 31.058 27.2896 30.3463 27.5238L25.9844 28.959ZM15.1993 24.3125C14.4899 24.5481 14.0112 25.2116 14.0112 25.9591V30.226C14.0112 31.4075 15.1663 32.2434 16.2886 31.8742L20.6505 30.4389C21.3623 30.2047 21.8433 29.5401 21.8433 28.7908V24.5101C21.8433 23.3265 20.6844 22.4903 19.5612 22.8635L15.1993 24.3125ZM5.72014 17.8501C5.01076 18.0857 4.53204 18.7492 4.53204 19.4967V23.7636C4.53204 24.9451 5.68715 25.781 6.80943 25.4118L11.1713 23.9766C11.8831 23.7424 12.3641 23.0777 12.3641 22.3284V18.0477C12.3641 16.8642 11.2052 16.028 10.082 16.4011L5.72014 17.8501Z" fill="#6AA3D9"/>
<path fill-rule="evenodd" clip-rule="evenodd" d="M25.9816 19.2458C24.8596 19.6121 23.707 18.776 23.707 17.5958V13.3875C23.707 12.6383 24.1877 11.9736 24.8993 11.739L29.2598 10.3015C30.3827 9.93128 31.5391 10.7676 31.5391 11.95V16.1719C31.5391 16.9229 31.056 17.5887 30.3421 17.8219L25.9816 19.2458ZM25.9853 28.9613C24.8626 29.3307 23.707 28.4944 23.707 27.3125V24.0967C23.707 23.6077 23.5007 23.1414 23.1388 22.8124L21.5456 21.364C21.0839 20.9443 20.4324 20.8047 19.8392 20.9984L16.2858 22.1587C15.1638 22.5251 14.0112 21.689 14.0112 20.5087V16.3005C14.0112 15.5512 14.492 14.8866 15.2035 14.652L19.5641 13.2144C20.687 12.8442 21.8433 13.6805 21.8433 14.8629V17.955C21.8433 18.444 22.0496 18.9104 22.4114 19.2394L24.0654 20.743C24.5295 21.1648 25.185 21.3036 25.7802 21.1059L29.2561 19.9512C30.3797 19.5779 31.5391 20.4144 31.5391 21.5984V25.8777C31.5391 26.6273 31.0579 27.2922 30.3458 27.5265L25.9853 28.9613ZM15.1998 24.3127C14.4901 24.5484 14.0112 25.2121 14.0112 25.9599V30.2254C14.0112 31.4074 15.1668 32.2436 16.2895 31.8742L20.65 30.4395C21.3621 30.2052 21.8433 29.5403 21.8433 28.7907V24.5114C21.8433 23.3274 20.684 22.4909 19.5603 22.8641L15.1998 24.3127Z" fill="white"/>
</svg>
