<svg width="24" height="24" viewBox="0 0 24 24" fill="none" xmlns="http://www.w3.org/2000/svg">
<path d="M1 6.15383C1 5.0966 1.81156 3.96407 2.81268 3.62424L7.35541 2.08219V8.79378L1 10.9512V6.15383Z" fill="#353A5C"/>
<path d="M1 12.3294L7.35541 10.172V16.8836L2.81268 18.4257C1.81156 18.7655 1 18.1839 1 17.1267V12.3294Z" fill="#353A5C"/>
<path d="M8.66083 9.72923L15.0162 7.57186V14.2835L8.66083 16.4408V9.72923Z" fill="#E7C100"/>
<path d="M8.66083 1.63906L13.2036 0.0970053C14.2047 -0.242827 15.0162 0.338732 15.0162 1.39595V6.19328L8.66083 8.35065V1.63906Z" fill="#353A5C"/>
<path d="M8.69822 17.8067L15.0536 15.6494V22.3609L10.5109 23.903C9.50978 24.2428 8.69822 23.6613 8.69822 22.604V17.8067Z" fill="#E7C100"/>
<path d="M16.3216 7.16798L20.8644 5.62593C21.8655 5.2861 22.677 5.86765 22.677 6.92488V11.7222L16.3216 13.8796V7.16798Z" fill="#E7C100"/>
<path d="M16.3591 15.2457L22.7145 13.0883V17.8857C22.7145 18.9429 21.9029 20.0754 20.9018 20.4152L16.3591 21.9573V15.2457Z" fill="#E7C100"/>
</svg>
