<svg width="80" height="80" viewBox="0 0 80 80" fill="none" xmlns="http://www.w3.org/2000/svg">
<path fill-rule="evenodd" clip-rule="evenodd" d="M47.4148 6.31199C49.3005 6.93366 50.5745 8.69514 50.5745 10.6807V21.8411C50.5745 24.969 47.52 27.1848 44.5466 26.2139L34.7187 23.0047C33.1467 22.4914 31.4202 22.8613 30.1965 23.9737L26.3757 27.4472C25.4168 28.319 24.87 29.5549 24.87 30.8509V39.8194C24.87 42.9473 21.8155 45.1631 18.8421 44.1922L7.27806 40.416C5.38603 39.7982 4.10596 38.0336 4.10596 36.0433V24.8466C4.10596 21.7132 7.17037 19.4968 10.1462 20.4779L18.9021 23.3645C20.4771 23.8837 22.2096 23.515 23.4367 22.3995L28.3047 17.974C29.2637 17.1022 29.8104 15.8663 29.8104 14.5703V6.8683C29.8104 3.73491 32.8748 1.51852 35.8507 2.49959L47.4148 6.31199ZM69.6789 34.782C72.6523 35.7529 75.7068 33.5372 75.7068 30.4092V19.2488C75.7068 17.2633 74.4328 15.5018 72.547 14.8801L60.983 11.0677C58.0071 10.0866 54.9427 12.303 54.9427 15.4364V23.5193C54.9427 24.8153 54.396 26.0512 53.437 26.923L49.7093 30.3118C48.4823 31.4273 46.7497 31.796 45.1748 31.2768L35.8507 28.2029C32.8748 27.2218 29.8104 29.4382 29.8104 32.5716V43.7683C29.8104 45.7586 31.0905 47.5232 32.9825 48.141L44.5466 51.9172C47.52 52.8881 50.5745 50.6723 50.5745 47.5444V39.2798C50.5745 37.9837 51.1212 36.7478 52.0802 35.876L55.6371 32.6425C56.8607 31.5301 58.5873 31.1601 60.1593 31.6735L69.6789 34.782ZM18.8323 69.9466C21.8076 70.9256 24.87 68.7093 24.87 65.5771V54.2647C24.87 52.283 23.6009 50.524 21.7202 49.8993L10.1561 46.0578C7.17835 45.0686 4.10596 47.2855 4.10596 50.4232V61.7721C4.10596 63.7586 5.38121 65.5207 7.26823 66.1416L18.8323 69.9466ZM52.0802 62.0653C51.1212 62.9371 50.5745 64.173 50.5745 65.469V73.3021C50.5745 76.4343 47.5121 78.6506 44.5368 77.6716L32.9727 73.8666C31.0857 73.2457 29.8104 71.4836 29.8104 69.4971V58.1482C29.8104 55.0105 32.8828 52.7936 35.8606 53.7828L45.6395 57.0313C47.2168 57.5553 48.9541 57.1876 50.184 56.0696L53.437 53.1123C54.396 52.2405 54.9427 51.0046 54.9427 49.7085V41.013C54.9427 37.8752 58.0151 35.6584 60.9929 36.6476L72.5569 40.489C74.4376 41.1138 75.7068 42.8728 75.7068 44.8545V56.1668C75.7068 59.2991 72.6444 61.5153 69.669 60.5363L60.5369 57.5316C58.9625 57.0135 57.2312 57.3825 56.0049 58.4974L52.0802 62.0653Z" fill="#6AA3D9"/>
<path fill-rule="evenodd" clip-rule="evenodd" d="M18.8398 44.1915C21.8144 45.1628 24.87 42.9462 24.87 39.8171V28.6604C24.87 26.674 23.5955 24.9119 21.7091 24.29L10.1485 20.4787C7.17155 19.4973 4.10596 21.7145 4.10596 24.8491V36.0421C4.10596 38.0332 5.38652 39.7985 7.27928 40.4165L18.8398 44.1915ZM18.83 69.9459C21.8065 70.9252 24.87 68.7081 24.87 65.5746V57.051C24.87 55.7545 25.417 54.5181 26.3763 53.646L30.5971 49.8089C31.8212 48.6961 33.5484 48.326 35.121 48.8395L44.5443 51.9166C47.5188 52.8879 50.5745 50.6712 50.5745 47.5421V36.3854C50.5745 34.3991 49.3 32.6369 47.4135 32.015L35.853 28.2038C32.876 27.2224 29.8104 29.4396 29.8104 32.5742V40.7688C29.8104 42.0653 29.2635 43.3017 28.3041 44.1738L23.9213 48.1582C22.691 49.2767 20.953 49.6445 19.3751 49.1203L10.1584 46.0586C7.17953 45.069 4.10596 47.2867 4.10596 50.4257V61.7708C4.10596 63.7581 5.3817 65.5209 7.26944 66.1421L18.83 69.9459ZM47.4235 57.624C49.3048 58.249 50.5745 60.0086 50.5745 61.9911V73.2997C50.5745 76.4332 47.5109 78.6503 44.5344 77.6709L32.9739 73.8671C31.0862 73.246 29.8104 71.4832 29.8104 69.4959V58.1508C29.8104 55.0118 32.884 52.7941 35.8629 53.7837L47.4235 57.624Z" fill="#0D1419"/>
</svg>
