<svg width="400" height="400" viewBox="0 0 400 400" fill="none" xmlns="http://www.w3.org/2000/svg">
<path d="M33.3416 109.943C33.3416 97.5337 42.669 83.7052 54.175 79.0565L130.733 48.1249V153.165L33.3416 192.514V109.943Z" fill="white"/>
<path d="M33.345 215.081L130.737 175.732V280.772L54.1785 311.704C42.6725 316.353 33.345 310.061 33.345 297.652V215.081Z" fill="white"/>
<path d="M151.595 167.229L248.986 127.88V232.921L151.595 272.27V167.229Z" fill="#E7C100"/>
<path d="M151.595 39.7227L228.153 8.79111C239.659 4.14239 248.986 10.4338 248.986 22.8435V105.414L151.595 144.763V39.7227Z" fill="white"/>
<path d="M151.318 294.801L248.71 255.452V360.492L172.151 391.424C160.645 396.073 151.318 389.781 151.318 377.372V294.801Z" fill="#E7C100"/>
<path d="M269.795 119.215L346.354 88.2833C357.86 83.6346 367.187 89.926 367.187 102.336V184.907L269.795 224.255V119.215Z" fill="#E7C100"/>
<path d="M269.567 246.819L366.959 207.47V290.041C366.959 302.451 357.632 316.279 346.126 320.928L269.567 351.86V246.819Z" fill="#E7C100"/>
</svg>
